<svg xmlns="http://www.w3.org/2000/svg" xmlns:xlink="http://www.w3.org/1999/xlink" viewBox="0 0 861.98 127.38"><defs><style>.cls-1{fill:#fff;}.cls-2{fill:url(#linear-gradient);}.cls-3{fill:url(#linear-gradient-2);}</style><linearGradient id="linear-gradient" x1="116.18" y1="34.54" x2="69.85" y2="34.54" gradientUnits="userSpaceOnUse"><stop offset="0" stop-color="#fff"/><stop offset="0.3" stop-color="#fdfdfd"/><stop offset="0.44" stop-color="#f5f5f5"/><stop offset="0.54" stop-color="#e9e9e9"/><stop offset="0.63" stop-color="#d7d7d7"/><stop offset="0.71" stop-color="#bfbfbf"/><stop offset="0.78" stop-color="#a2a2a2"/><stop offset="0.84" stop-color="#7f7f7f"/><stop offset="0.9" stop-color="#575757"/><stop offset="0.95" stop-color="#2b2b2b"/><stop offset="1"/></linearGradient><linearGradient id="linear-gradient-2" x1="41.71" y1="83.98" x2="1.32" y2="83.98" gradientUnits="userSpaceOnUse"><stop offset="0"/><stop offset="0.05" stop-color="#2e2e2e"/><stop offset="0.1" stop-color="#595959"/><stop offset="0.16" stop-color="#818181"/><stop offset="0.22" stop-color="#a3a3a3"/><stop offset="0.29" stop-color="silver"/><stop offset="0.36" stop-color="#d7d7d7"/><stop offset="0.45" stop-color="#e9e9e9"/><stop offset="0.55" stop-color="#f6f6f6"/><stop offset="0.69" stop-color="#fdfdfd"/><stop offset="1" stop-color="#fff"/></linearGradient></defs><g id="Layer_2" data-name="Layer 2"><g id="Layer_1-2" data-name="Layer 1"><path class="cls-1" d="M120.36,90.56A24,24,0,0,0,125,92.73,22.35,22.35,0,0,0,132.9,94a13.65,13.65,0,0,0,6.47-1.36,9.1,9.1,0,0,0,3.9-4,20.34,20.34,0,0,0,1.82-7,101.12,101.12,0,0,0,.45-10.31V34h14V70.22a107.55,107.55,0,0,1-.91,14.65,32.87,32.87,0,0,1-3.54,11.44,17.57,17.57,0,0,1-7.94,7.42q-5.31,2.61-14.11,2.61a31.38,31.38,0,0,1-8.7-1.12,24.22,24.22,0,0,1-7.08-3.34Z"/><path class="cls-1" d="M171.14,86.2V53.33h13.55V83.22c0,4,.74,7,2.23,9a7.61,7.61,0,0,0,6.57,3,13.91,13.91,0,0,0,5.21-1,14.81,14.81,0,0,0,4.75-3.12,18.06,18.06,0,0,0,3.7-5.25V53.33H220.7V90.71a4.64,4.64,0,0,0,.76,3,3.62,3.62,0,0,0,2.48,1.09v11c-1.35.2-2.48.35-3.39.46a22.93,22.93,0,0,1-2.48.15,9.79,9.79,0,0,1-5.92-1.66,6.52,6.52,0,0,1-2.68-4.56l-.3-4.2a23.22,23.22,0,0,1-9.1,8.07,27.29,27.29,0,0,1-12.24,2.75c-5.47,0-9.61-1.75-12.45-5.26S171.14,93,171.14,86.2Z"/><path class="cls-1" d="M230.51,90.35a14.49,14.49,0,0,1,2.88-8.94,18.49,18.49,0,0,1,8.05-6,31.13,31.13,0,0,1,11.83-2.1,46.22,46.22,0,0,1,6.78.51,23.1,23.1,0,0,1,6,1.62V72.67q0-5-3-7.65t-8.85-2.68a22.91,22.91,0,0,0-8.29,1.51,42.19,42.19,0,0,0-8.3,4.45l-4.35-8.9A43.4,43.4,0,0,1,244,54.24a38.82,38.82,0,0,1,11.58-1.72q11.32,0,17.65,5.59t6.32,16V90.72a4.63,4.63,0,0,0,.76,3,3.62,3.62,0,0,0,2.48,1.09v11c-1.22.2-2.31.37-3.29.51a19.55,19.55,0,0,1-2.48.2q-4.05,0-6.12-1.82a7.78,7.78,0,0,1-2.58-4.45l-.3-2.73a23.12,23.12,0,0,1-8.6,6.87,24.47,24.47,0,0,1-10.52,2.43,20.49,20.49,0,0,1-9.46-2.15,16.41,16.41,0,0,1-6.57-5.89A15.42,15.42,0,0,1,230.51,90.35Zm33,2.63a14,14,0,0,0,1.82-2.36,4.35,4.35,0,0,0,.71-2.17V83.22a27.79,27.79,0,0,0-5.26-1.53,28.74,28.74,0,0,0-5.37-.54,15.46,15.46,0,0,0-8.64,2.22,6.74,6.74,0,0,0-3.39,5.87A6.94,6.94,0,0,0,244.47,93a7.9,7.9,0,0,0,3.24,2.86,10.88,10.88,0,0,0,5,1.09,16.51,16.51,0,0,0,6-1.13A14.93,14.93,0,0,0,263.49,93Z"/><path class="cls-1" d="M341.47,105.83H327.92V76.52q0-6.27-2.23-9.17a7.34,7.34,0,0,0-6.17-2.89A12.3,12.3,0,0,0,314,65.84a17.22,17.22,0,0,0-5,3.81,14.74,14.74,0,0,0-3.23,5.58v30.6H292.21V53.33h12.24v9.8a19.77,19.77,0,0,1,5.16-5.76,23.55,23.55,0,0,1,7.23-3.6,29.61,29.61,0,0,1,8.65-1.25,16.75,16.75,0,0,1,8.14,1.76A12.08,12.08,0,0,1,338.49,59a20.94,20.94,0,0,1,2.33,6.66,43.48,43.48,0,0,1,.65,7.5Z"/><path class="cls-1" d="M377.89,106.84a29.81,29.81,0,0,1-11.54-2.15,26.15,26.15,0,0,1-8.8-5.9A26.84,26.84,0,0,1,350,79.94a28.11,28.11,0,0,1,3.39-13.71,25.83,25.83,0,0,1,9.71-10A28.68,28.68,0,0,1,378,52.52a28.12,28.12,0,0,1,14.87,3.76,25.56,25.56,0,0,1,9.45,9.92,27.79,27.79,0,0,1,3.29,13.27c0,.81,0,1.62-.1,2.46s-.14,1.52-.2,2h-41a15,15,0,0,0,2.38,6.92,12.8,12.8,0,0,0,5.06,4.5,14.67,14.67,0,0,0,6.62,1.53A15.7,15.7,0,0,0,386,95a10.43,10.43,0,0,0,4.9-5.21L402.57,93a22.11,22.11,0,0,1-5.52,7.19,26.48,26.48,0,0,1-8.44,4.9A31.11,31.11,0,0,1,377.89,106.84ZM364,75.38h27.71a15.58,15.58,0,0,0-2.27-6.87A13.13,13.13,0,0,0,384.56,64a14,14,0,0,0-6.78-1.63A13.56,13.56,0,0,0,371.16,64a13.22,13.22,0,0,0-4.86,4.54A15.58,15.58,0,0,0,364,75.38Z"/><path class="cls-1" d="M420.57,53.33,431.7,69.76l.81,1.81,1-1.81,11-16.43h14.26L440.4,79.48l18.71,26.35H444.85L433.42,89.5l-.91-1.7-.81,1.7-11.33,16.33H406.11l18.71-26L406.41,53.33Z"/><path class="cls-1" d="M497.34,106.84a21.18,21.18,0,0,1-10.87-2.75,19.49,19.49,0,0,1-7.33-7.45v30.74H465.58v-74h11.84v9.1a22.27,22.27,0,0,1,7.68-7.25,21.1,21.1,0,0,1,10.63-2.66,23,23,0,0,1,9.86,2.1,24,24,0,0,1,7.84,5.86,28.13,28.13,0,0,1,5.21,8.6,28.94,28.94,0,0,1,1.87,10.45,31.46,31.46,0,0,1-3,13.81,25,25,0,0,1-8.19,9.85A20.39,20.39,0,0,1,497.34,106.84Zm-4.55-11.53A12.32,12.32,0,0,0,498.46,94a14.06,14.06,0,0,0,4.4-3.52,15.82,15.82,0,0,0,2.83-5.06,18.26,18.26,0,0,0,1-5.91,16.76,16.76,0,0,0-1.06-6,14.76,14.76,0,0,0-7.79-8.23,14.1,14.1,0,0,0-5.82-1.2,12.44,12.44,0,0,0-3.89.65,15.53,15.53,0,0,0-3.79,1.82,14.92,14.92,0,0,0-3.19,2.76,9.81,9.81,0,0,0-2,3.45V85a19.32,19.32,0,0,0,3.28,5.24A15.35,15.35,0,0,0,487.23,94,12.51,12.51,0,0,0,492.79,95.31Z"/><path class="cls-1" d="M529.61,32h13.55V89q0,3.66,1.22,4.92a4.39,4.39,0,0,0,3.34,1.27,14.51,14.51,0,0,0,3.33-.41,15,15,0,0,0,3-1l1.82,10.32a26.06,26.06,0,0,1-6.37,2,35,35,0,0,1-6.58.71q-6.37,0-9.86-3.4t-3.49-9.68Z"/><path class="cls-1" d="M586.25,106.84a30.06,30.06,0,0,1-11.63-2.15,25.15,25.15,0,0,1-8.75-6,26.86,26.86,0,0,1-5.51-8.7,28.88,28.88,0,0,1,0-20.71,26.76,26.76,0,0,1,5.51-8.7,25,25,0,0,1,8.75-6,29.87,29.87,0,0,1,11.63-2.16,29.45,29.45,0,0,1,11.58,2.16A25.76,25.76,0,0,1,612.1,69.33a29.6,29.6,0,0,1,0,20.71,26.1,26.1,0,0,1-5.47,8.7,25.15,25.15,0,0,1-8.75,6A30,30,0,0,1,586.25,106.84ZM572.39,79.73a17.29,17.29,0,0,0,1.83,8.09,13.93,13.93,0,0,0,4.95,5.51,13,13,0,0,0,7.08,2,12.61,12.61,0,0,0,7-2,14.75,14.75,0,0,0,5-5.56,18.3,18.3,0,0,0,0-16.12,14.17,14.17,0,0,0-5-5.56,13.27,13.27,0,0,0-14.06,0,14.28,14.28,0,0,0-4.95,5.56A17.25,17.25,0,0,0,572.39,79.73Z"/><path class="cls-1" d="M642.59,106.84a38,38,0,0,1-13-2.22A29.25,29.25,0,0,1,619,98l4.86-8.8a36.3,36.3,0,0,0,9.36,5.67,24,24,0,0,0,8.85,1.82,12.66,12.66,0,0,0,6.32-1.37,4.44,4.44,0,0,0,2.38-4.1,3.54,3.54,0,0,0-1.32-2.94,12.25,12.25,0,0,0-3.79-1.85c-1.66-.53-3.66-1.13-6-1.79a94.22,94.22,0,0,1-9.81-3.7,14.49,14.49,0,0,1-5.92-4.54,11.82,11.82,0,0,1-2-7,15,15,0,0,1,2.68-8.94,17.63,17.63,0,0,1,7.48-5.84,28,28,0,0,1,11.28-2.1,32.19,32.19,0,0,1,10.72,1.77A25.59,25.59,0,0,1,663.33,60l-5.46,8.6A33,33,0,0,0,650.18,64a19.76,19.76,0,0,0-7.38-1.46,15.17,15.17,0,0,0-4,.5,6.62,6.62,0,0,0-3,1.64,4.31,4.31,0,0,0-1.17,3.23,4,4,0,0,0,1.06,2.94,9,9,0,0,0,3.24,1.84q2.18.8,5.31,1.79A88.66,88.66,0,0,1,655,78.17a16.94,16.94,0,0,1,6.63,4.63,11.59,11.59,0,0,1,2.22,7.51,14.41,14.41,0,0,1-5.76,12.15Q652.3,106.84,642.59,106.84Z"/><rect class="cls-1" x="673.04" y="31.99" width="13.55" height="13.45"/><rect class="cls-1" x="673.04" y="52.83" width="13.55" height="53"/><path class="cls-1" d="M723.31,106.84a30,30,0,0,1-11.63-2.15,25.15,25.15,0,0,1-8.75-6,26.72,26.72,0,0,1-5.52-8.7,28.88,28.88,0,0,1,0-20.71,26.62,26.62,0,0,1,5.52-8.7,25,25,0,0,1,8.75-6,32.25,32.25,0,0,1,23.21,0,25.7,25.7,0,0,1,14.26,14.65,29.6,29.6,0,0,1,0,20.71,26.23,26.23,0,0,1-5.46,8.7,25.15,25.15,0,0,1-8.75,6A30.06,30.06,0,0,1,723.31,106.84ZM709.45,79.73a17.41,17.41,0,0,0,1.82,8.09,14,14,0,0,0,5,5.51,13,13,0,0,0,7.08,2,12.61,12.61,0,0,0,7-2,14.64,14.64,0,0,0,5-5.56,18.22,18.22,0,0,0,0-16.12,14.08,14.08,0,0,0-5-5.56,13.27,13.27,0,0,0-14.06,0,14.39,14.39,0,0,0-5,5.56A17.36,17.36,0,0,0,709.45,79.73Z"/><path class="cls-1" d="M809.39,105.83H795.83V76.52q0-6.27-2.22-9.17a7.35,7.35,0,0,0-6.17-2.89,12.38,12.38,0,0,0-5.52,1.38,17.18,17.18,0,0,0-5,3.81,14.63,14.63,0,0,0-3.24,5.58v30.6H760.13V53.33h12.23v9.8a19.77,19.77,0,0,1,5.16-5.76,23.6,23.6,0,0,1,7.24-3.6,29.54,29.54,0,0,1,8.64-1.25,16.79,16.79,0,0,1,8.15,1.76A12.12,12.12,0,0,1,806.4,59a20.7,20.7,0,0,1,2.33,6.66,42.51,42.51,0,0,1,.66,7.5Z"/><path class="cls-1" d="M840.74,106.84a38,38,0,0,1-13-2.22A29.25,29.25,0,0,1,817.17,98l4.86-8.8a36.3,36.3,0,0,0,9.36,5.67,24,24,0,0,0,8.85,1.82,12.66,12.66,0,0,0,6.32-1.37,4.44,4.44,0,0,0,2.38-4.1,3.54,3.54,0,0,0-1.32-2.94,12.25,12.25,0,0,0-3.79-1.85c-1.66-.53-3.66-1.13-6-1.79A94.22,94.22,0,0,1,828,81a14.42,14.42,0,0,1-5.92-4.54,11.75,11.75,0,0,1-2-7,15,15,0,0,1,2.68-8.94,17.63,17.63,0,0,1,7.48-5.84,28,28,0,0,1,11.28-2.1,32.19,32.19,0,0,1,10.72,1.77A25.59,25.59,0,0,1,861.48,60L856,68.61A33,33,0,0,0,848.33,64a19.78,19.78,0,0,0-7.39-1.46,15.15,15.15,0,0,0-4,.5,6.71,6.71,0,0,0-3,1.64,4.34,4.34,0,0,0-1.16,3.23,4,4,0,0,0,1.06,2.94,9,9,0,0,0,3.24,1.84q2.18.8,5.31,1.79a88.66,88.66,0,0,1,10.77,3.69,16.94,16.94,0,0,1,6.63,4.63A11.59,11.59,0,0,1,862,90.31a14.41,14.41,0,0,1-5.76,12.15Q850.45,106.84,840.74,106.84Z"/><path class="cls-2" d="M77.35,69.09c0-38.51,35.39-37.38,35.39-37.38V0L92.54.85,71.69,15V50.68Z"/><path class="cls-3" d="M35.39,49.44C35.39,88,0,86.81,0,86.81v31.72H19.54l21.51-15V67.84Z"/><path class="cls-1" d="M24,0h-.5L2,35.4H35.4V83.14A35.36,35.36,0,0,1,0,118.52H42a35.36,35.36,0,0,0,35.4-35.38V35.4A35.37,35.37,0,0,1,112.74,0Z"/></g></g></svg>