<svg xmlns="http://www.w3.org/2000/svg" xmlns:xlink="http://www.w3.org/1999/xlink" viewBox="0 0 348.77 366.67"><defs><style>.cls-1{fill:url(#linear-gradient);}.cls-2{fill:url(#linear-gradient-2);}.cls-3{fill:url(#linear-gradient-3);}</style><linearGradient id="linear-gradient" x1="359.41" y1="106.86" x2="216.09" y2="106.86" gradientUnits="userSpaceOnUse"><stop offset="0" stop-color="#68f1af"/><stop offset="1" stop-color="#0000fe"/></linearGradient><linearGradient id="linear-gradient-2" x1="4.61" y1="251.74" x2="135.61" y2="272.83" gradientUnits="userSpaceOnUse"><stop offset="0" stop-color="#0000fe"/><stop offset="1" stop-color="#68f1af"/></linearGradient><linearGradient id="linear-gradient-3" x1="135.75" y1="486.92" x2="181.95" y2="9.01" xlink:href="#linear-gradient-2"/></defs><g id="Layer_2" data-name="Layer 2"><g id="Layer_1-2" data-name="Layer 1"><path class="cls-1" d="M239.29,213.72C239.29,94.6,348.77,98.1,348.77,98.1V0l-62.5,2.63-64.5,43.8V156.79Z"/><path class="cls-2" d="M109.49,153C109.49,272.07,0,268.57,0,268.57v98.1H60.44L127,320.25V209.88Z"/><path class="cls-3" d="M74.3,0c-.48,0-1,0-1.5,0h0L6.3,109.51H109.5V257.19A109.36,109.36,0,0,1,0,366.65H129.78A109.4,109.4,0,0,0,239.29,257.19V109.51A109.44,109.44,0,0,1,348.76,0Z"/></g></g></svg>