<svg xmlns="http://www.w3.org/2000/svg" xmlns:xlink="http://www.w3.org/1999/xlink" viewBox="0 0 348 365.86"><defs><style>.cls-1{fill:url(#linear-gradient);}.cls-2{fill:url(#linear-gradient-2);}.cls-3{fill:#fff;}</style><linearGradient id="linear-gradient" x1="358.61" y1="106.63" x2="215.61" y2="106.63" gradientUnits="userSpaceOnUse"><stop offset="0" stop-color="#fff"/><stop offset="0.3" stop-color="#fdfdfd"/><stop offset="0.44" stop-color="#f5f5f5"/><stop offset="0.54" stop-color="#e9e9e9"/><stop offset="0.63" stop-color="#d7d7d7"/><stop offset="0.71" stop-color="#bfbfbf"/><stop offset="0.78" stop-color="#a2a2a2"/><stop offset="0.84" stop-color="#7f7f7f"/><stop offset="0.9" stop-color="#575757"/><stop offset="0.95" stop-color="#2b2b2b"/><stop offset="1"/></linearGradient><linearGradient id="linear-gradient-2" x1="128.75" y1="259.23" x2="4.07" y2="259.23" gradientUnits="userSpaceOnUse"><stop offset="0"/><stop offset="0.05" stop-color="#2e2e2e"/><stop offset="0.1" stop-color="#595959"/><stop offset="0.16" stop-color="#818181"/><stop offset="0.22" stop-color="#a3a3a3"/><stop offset="0.29" stop-color="silver"/><stop offset="0.36" stop-color="#d7d7d7"/><stop offset="0.45" stop-color="#e9e9e9"/><stop offset="0.55" stop-color="#f6f6f6"/><stop offset="0.69" stop-color="#fdfdfd"/><stop offset="1" stop-color="#fff"/></linearGradient></defs><g id="Layer_2" data-name="Layer 2"><g id="Layer_1-2" data-name="Layer 1"><path class="cls-1" d="M238.75,213.25C238.75,94.39,348,97.89,348,97.89V0L285.64,2.62l-64.36,43.7V156.44Z"/><path class="cls-2" d="M109.25,152.61C109.25,271.47,0,268,0,268v97.89H60.3l66.42-46.32V209.42Z"/><path class="cls-3" d="M74.14,0c-.49,0-1,0-1.51,0h0L6.29,109.27h103V256.62A109.12,109.12,0,0,1,0,365.84H129.5A109.15,109.15,0,0,0,238.76,256.62V109.27A109.19,109.19,0,0,1,348,0Z"/></g></g></svg>